<mxfile host="app.diagrams.net" modified="2024-03-01T08:49:09.359Z" agent="Mozilla/5.0 (Windows NT 10.0; Win64; x64) AppleWebKit/537.36 (KHTML, like Gecko) Chrome/122.0.0.0 Safari/537.36" version="24.0.0" etag="3zJtqallDEvH2epkgxUK" type="github">
  <diagram name="Page-1" id="C5A8rRDpob3aylQ6Z-bB">
    <mxGraphModel>
      <root>
        <mxCell id="0" />
        <mxCell id="1" parent="0" />
      </root>
    </mxGraphModel>
  </diagram>
</mxfile>
